<svg width="264" height="264" viewBox="0 0 264 264" fill="none" xmlns="http://www.w3.org/2000/svg">
<path fill-rule="evenodd" clip-rule="evenodd" d="M263.822 263.896L131.866 263.896C131.866 237.788 124.125 212.268 109.62 190.56C95.1158 168.853 74.5003 151.934 50.3804 141.943C34.3294 135.295 17.2062 131.913 0 131.896C8.56075 131.887 17.1406 131.046 25.6181 129.359C51.2236 124.266 74.7438 111.694 93.2043 93.2337L93.2414 93.1966L93.2558 93.211C111.704 74.7539 124.267 51.2425 129.359 25.6476C131.045 17.1689 131.887 8.58755 131.895 0.0256042C131.912 17.2331 135.294 34.3576 141.943 50.4098C151.934 74.5297 168.852 95.1453 190.56 109.65C212.267 124.154 237.788 131.896 263.895 131.896L263.895 263.896H263.822Z" fill="white"/>
</svg>
