<svg width="80" height="80" viewBox="0 0 80 80" fill="none" xmlns="http://www.w3.org/2000/svg">
<path d="M25.0012 66.0938H14.0637V30.7812H25.0012V66.0938ZM26.0925 19.5306C26.0925 15.9949 23.2239 13.125 19.6899 13.125C16.1426 13.125 13.2812 15.9949 13.2812 19.5306C13.2812 23.0676 16.1426 25.9375 19.6899 25.9375C23.2239 25.9375 26.0925 23.0676 26.0925 19.5306ZM65.9375 46.6663C65.9375 37.1869 63.9349 30.1562 52.8613 30.1562C47.5403 30.1562 43.9685 32.8174 42.5104 35.5847H42.5V30.7812H31.875V66.0938H42.5V48.5608C42.5 43.9691 43.6688 39.5209 49.3604 39.5209C54.9744 39.5209 55.1562 44.7717 55.1562 48.8525V66.0938H65.9375V46.6663ZM80 70.625V9.375C80 4.20532 75.7947 0 70.625 0H9.375C4.20532 0 0 4.20532 0 9.375V70.625C0 75.7947 4.20532 80 9.375 80H70.625C75.7947 80 80 75.7947 80 70.625ZM70.625 6.25C72.348 6.25 73.75 7.65198 73.75 9.375V70.625C73.75 72.348 72.348 73.75 70.625 73.75H9.375C7.65198 73.75 6.25 72.348 6.25 70.625V9.375C6.25 7.65198 7.65198 6.25 9.375 6.25H70.625Z" fill="white"/>
</svg>
