<svg width="264" height="264" viewBox="0 0 264 264" fill="none" xmlns="http://www.w3.org/2000/svg">
<path d="M132 -5.7699e-06C158.107 -6.91108e-06 183.628 7.74166 205.335 22.246C227.043 36.7503 243.961 57.3659 253.952 81.4858C263.943 105.606 266.557 132.146 261.464 157.752C256.37 183.357 243.799 206.878 225.338 225.338C206.878 243.799 183.357 256.37 157.752 261.464C132.146 266.557 105.606 263.943 81.4858 253.952C57.3659 243.961 36.7504 227.043 22.246 205.335C7.74166 183.628 -4.94005e-06 158.107 -5.7699e-06 132L132 132L132 -5.7699e-06Z" fill="#EBB16D"/>
</svg>
