<svg width="98" height="89" viewBox="0 0 98 89" fill="none" xmlns="http://www.w3.org/2000/svg">
<path d="M82.5 41.25C82.5 64.0317 64.0317 82.5 41.25 82.5C18.4683 82.5 0 64.0317 0 41.25C0 18.4683 18.4683 0 41.25 0C64.0317 0 82.5 18.4683 82.5 41.25ZM4.125 41.25C4.125 61.7536 20.7464 78.375 41.25 78.375C61.7536 78.375 78.375 61.7536 78.375 41.25C78.375 20.7464 61.7536 4.125 41.25 4.125C20.7464 4.125 4.125 20.7464 4.125 41.25Z" fill="black"/>
<path d="M41.2498 2.25C16.8134 33.5305 13.9983 52.9943 38.2494 80.25" stroke="black" stroke-width="3"/>
<path d="M73.5 66C54 44.9275 30.75 44.269 7.5 62.7074" stroke="black" stroke-width="3"/>
<path d="M72 15C53.3864 36.0725 31.1932 36.731 9 18.2926" stroke="black" stroke-width="3"/>
<path d="M40.073 3C64.5093 34.2805 67.3245 53.7443 43.0734 81" stroke="black" stroke-width="3"/>
<path d="M69.2784 81.802C66.3093 71.6535 60.2969 50.9851 60 49.5L92.2887 61.0099L84.4948 68.8069L96 80.3168L89.3196 87L76.701 74.3762L69.2784 81.802Z" fill="white" stroke="black" stroke-width="2"/>
</svg>
